HIERARCHY
ROOT Hips
{
  OFFSET 0 0 0
  CHANNELS 6 Xposition Yposition Zposition Zrotation Yrotation Xrotation
  JOINT LeftThigh
  {
    OFFSET 8.409438 0 -5.917753
    CHANNELS 3 Zrotation Yrotation Xrotation
    JOINT LeftLeg
    {
      OFFSET 0 0 -42.358652
      CHANNELS 3 Zrotation Yrotation Xrotation
      JOINT LeftFoot
      {
        OFFSET 0 0 -39.357303
        CHANNELS 3 Zrotation Yrotation Xrotation
      }
    }
  }
  JOINT RightThigh
  {
    OFFSET -8.409438 0 -5.917753
    CHANNELS 3 Zrotation Yrotation Xrotation
    JOINT RightLeg
    {
      OFFSET 0 0 -42.358652
      CHANNELS 3 Zrotation Yrotation Xrotation
      JOINT RightFoot
      {
        OFFSET 0 0 -39.357303
        CHANNELS 3 Zrotation Yrotation Xrotation
      }
    }
  }
  JOINT SpineLow
  {
    OFFSET 0 0 4.719101
    CHANNELS 3 Zrotation Yrotation Xrotation
    JOINT SpineMid
    {
      OFFSET 0 0 12.899191
      CHANNELS 3 Zrotation Yrotation Xrotation
      JOINT Chest
      {
        OFFSET 0 0 12.899191
        CHANNELS 3 Zrotation Yrotation Xrotation
        JOINT LeftShoulder
        {
          OFFSET 7.550562 1.41573 9.438202
          CHANNELS 3 Zrotation Yrotation Xrotation
          JOINT LeftArm
          {
            OFFSET 9.155056 0 4.247191
            CHANNELS 3 Zrotation Yrotation Xrotation
            JOINT LeftForearm
            {
              OFFSET 0 0 25.771955
              CHANNELS 3 Zrotation Yrotation Xrotation
              JOINT LeftHand
              {
                OFFSET 0 0 25.197169
                CHANNELS 3 Zrotation Yrotation Xrotation
              }
            }
          }
        }
        JOINT RightShoulder
        {
          OFFSET -7.550562 1.41573 9.438202
          CHANNELS 3 Zrotation Yrotation Xrotation
          JOINT RightArm
          {
            OFFSET -9.155056 0 4.247191
            CHANNELS 3 Zrotation Yrotation Xrotation
            JOINT RightForearm
            {
              OFFSET 0 0 -25.771955
              CHANNELS 3 Zrotation Yrotation Xrotation
              JOINT RightHand
              {
                OFFSET 0 0 -25.197169
                CHANNELS 3 Zrotation Yrotation Xrotation
              }
            }
          }
        }
        JOINT Neck
        {
          OFFSET 0 0 15.101124
          CHANNELS 3 Zrotation Yrotation Xrotation
          JOINT Head
          {
            OFFSET 0 0 11.325843
            CHANNELS 3 Zrotation Yrotation Xrotation
            End Site
            {
              OFFSET 0 0 14.157303
            }
          }
        }
      }
    }
  }
}
MOTION
Frames: 16
Frame Time: 0.0
0.0  101.685394  0.0  -1.068431  1.258659  -101.717547  5.279127  -20.888875  3.319151  1.298839  12.831252  29.438466  6.264713  4.879832  4.926733  -11.150557  11.870849  -0.450707  2.505727  3.4199  20.350522  -1.48229  1.442147  -0.963777  -3.912749  0.745784  2.69234  -10.601313  2.46411  7.219642  -10.601314  2.46411  7.219642  -17.215497  28.66125  9.36857  157.910226  65.9318  172.544794  -2.66549  1.207062  13.127486  76.362465  -4.790393  -9.819082  13.075977  -6.736703  16.615554  46.279633  13.314762  30.619019  0.669007  -35.132882  -105.683428  59.771086  15.355108  -1.613105  15.707054  -1.1795  1.729351  11.78332  -0.840831  1.328337  
0.0  101.685394  0.0  -0.949114  1.416798  -101.598126  5.561868  -20.847257  3.27652  1.247107  12.84277  29.403456  5.995708  4.816032  4.803945  -11.233276  12.041145  -0.527651  2.259371  3.387703  20.269681  -1.374676  1.466994  -0.9613  -3.86143  0.770721  2.696487  -10.458453  2.52712  7.229279  -10.458453  2.52712  7.229279  -17.684311  28.270304  9.104488  156.584207  65.796862  171.738332  -3.258917  1.253905  12.637743  76.44995  -4.823502  -9.809233  12.903063  -6.855585  16.393335  46.808202  13.085852  30.848358  0.234407  -34.73327  -105.615851  59.769622  15.475513  -1.45755  15.50305  -1.237437  1.477143  11.629905  -0.891282  1.140091  
0.0  101.685394  0.0  -0.849569  1.392042  -101.598204  5.901894  -20.846391  3.285119  1.117527  12.879603  29.303521  5.894633  4.786747  4.787356  -10.88511  12.120851  -0.371399  1.973413  3.405933  20.164624  -1.37193  1.462156  -0.957221  -3.811231  0.786116  2.705049  -10.319426  2.564944  7.252449  -10.319426  2.564944  7.252448  -17.724211  28.065779  8.977396  155.643595  65.675596  171.089663  -3.622908  1.228046  12.466701  76.476542  -4.888117  -9.805627  12.878807  -6.914828  16.198932  46.824836  13.026035  30.899932  0.138064  -34.570107  -105.556332  59.931101  15.357661  -1.386808  15.425626  -1.237505  1.316639  11.571496  -0.895567  1.019462  
0.0  101.685394  0.0  -0.791492  1.46663  -101.623381  6.219269  -20.923611  3.360508  1.047621  12.914451  29.231912  5.641726  4.733257  4.695512  -10.625315  12.160253  -0.205254  1.617048  3.422984  20.063038  -1.337278  1.485394  -0.937194  -3.75979  0.80458  2.714342  -10.176649  2.611072  7.277273  -10.176649  2.611072  7.277273  -18.019623  27.784873  8.885125  155.896142  65.529463  171.276831  -3.664326  1.157627  12.420598  76.955473  -5.003114  -9.899156  12.820982  -7.005317  16.135997  47.188589  12.807722  31.010979  -0.374223  -34.439934  -105.638166  59.978417  15.265649  -1.279738  15.249422  -1.277914  1.18725  11.439123  -0.929493  0.922986  
0.0  101.685394  0.0  -0.734923  1.57123  -101.691307  6.451295  -20.991472  3.457366  0.90308  12.976385  29.108843  5.504718  4.709978  4.671483  -10.461241  12.208955  4.47E-4  1.456667  3.433255  19.974756  -1.382059  1.498123  -0.922953  -3.735991  0.815902  2.714674  -10.110477  2.639365  7.277553  -10.110478  2.639365  7.277553  -18.001061  27.697906  8.885502  156.185341  65.605044  171.60142  -3.613134  1.191997  12.347385  77.011481  -5.007713  -9.917034  12.77967  -7.045047  16.055851  47.158098  12.794334  31.043857  -0.360507  -34.386667  -105.636306  60.119251  15.182773  -1.124953  15.182533  -1.268719  1.148452  11.388864  -0.92368  0.893492  
0.0  101.685394  0.0  -0.742302  1.827535  -101.686654  6.428463  -21.06571  3.448335  0.805244  13.038873  28.993463  5.37258  4.692722  4.648733  -10.400339  12.137604  0.178138  1.206005  3.50321  19.879128  -1.405303  1.537908  -0.921502  -3.733867  0.821444  2.704554  -10.104557  2.65269  7.249229  -10.104557  2.65269  7.249229  -18.090282  27.620886  8.865383  157.182312  65.685727  172.40199  -3.356177  1.147408  12.372386  77.053079  -5.017321  -9.948284  12.799412  -7.093902  16.048758  47.165693  12.731531  31.029665  -0.579573  -34.267883  -105.634934  60.191827  15.001662  -0.956449  15.063472  -1.284491  1.11347  11.299513  -0.936594  0.867368  
0.0  101.685394  0.0  -0.727103  2.095659  -101.682522  6.447799  -21.116983  3.476569  0.671244  13.113427  28.873154  5.27183  4.671575  4.629844  -10.535309  12.181986  0.296087  1.120373  3.528139  19.806468  -1.428909  1.535467  -0.925039  -3.74523  0.82292  2.692093  -10.135994  2.656041  7.214517  -10.135994  2.656041  7.214517  -18.06304  27.603828  8.849286  157.831887  65.810458  172.945541  -3.211564  1.097674  12.418602  77.136796  -5.003205  -9.910187  12.750645  -7.095957  15.983164  47.125632  12.761175  31.052886  -0.617613  -34.089446  -105.569749  60.312033  14.740304  -0.763326  15.028977  -1.24712  1.096271  11.273564  -0.909029  0.853466  
0.0  101.685394  0.0  -0.703271  2.40091  -101.641329  6.222189  -21.08279  3.401131  0.530964  13.185069  28.734333  5.307477  4.685158  4.676616  -10.653784  12.226183  0.397275  0.894837  3.566537  19.734233  -1.403383  1.547704  -0.941174  -3.752739  0.830993  2.685492  -10.155981  2.677822  7.194985  -10.155981  2.677822  7.194985  -18.086443  27.511286  8.795725  158.419794  65.822187  173.483015  -3.073663  0.863303  12.487196  77.192212  -4.99518  -9.80003  12.695676  -7.188693  15.810503  47.09365  12.798626  31.163347  -0.774321  -33.810485  -105.485961  60.515093  14.306444  -0.546872  14.904491  -1.230328  1.020955  11.180029  -0.898477  0.796268  
0.0  101.685394  0.0  -0.654582  2.679807  -101.602604  6.107362  -21.060752  3.386331  0.430061  13.267803  28.653789  5.282748  4.676628  4.672851  -10.900584  12.324769  0.432168  0.838909  3.601304  19.697551  -1.353283  1.543391  -0.949028  -3.761739  0.838706  2.684334  -10.179839  2.699608  7.19028  -10.179839  2.699608  7.19028  -18.09043  27.418315  8.700589  158.406284  65.835726  173.480542  -3.137078  0.581926  12.625803  77.183742  -5.000937  -9.639917  12.612621  -7.186456  15.691924  46.962058  12.969011  31.132911  -0.838613  -33.329248  -105.290462  60.833128  13.731513  -0.293074  14.847745  -1.194558  0.926978  11.137246  -0.874006  0.724751  
0.0  101.685394  0.0  -0.56846  2.884585  -101.545539  5.853897  -20.93694  3.275184  0.231922  13.348984  28.492705  5.40408  4.701298  4.757934  -11.176502  12.449122  0.411215  0.820971  3.632662  19.672421  -1.231035  1.566468  -0.948969  -3.749276  0.853327  2.690978  -10.144024  2.739089  7.206807  -10.144025  2.739089  7.206807  -17.906592  27.343262  8.612221  158.380238  65.735204  173.505365  -3.030247  0.00344  12.97794  77.134141  -5.021452  -9.420843  12.406321  -7.244864  15.434035  46.850865  13.129468  31.157416  -1.027955  -32.567504  -104.924598  61.265816  13.038375  -0.077072  14.695888  -1.173493  0.776788  11.023041  -0.862029  0.611221  
0.0  101.685394  0.0  -0.50169  3.099614  -101.481565  5.744347  -20.890296  3.206568  0.138186  13.422488  28.474943  5.364499  4.711757  4.757732  -11.46221  12.50502  0.431457  0.849011  3.736427  19.632432  -1.18708  1.537457  -0.970301  -3.747469  0.864262  2.694406  -10.13783  2.769188  7.214626  -10.137829  2.769188  7.214626  -17.86848  27.198365  8.488588  157.961855  65.66838  173.194975  -3.213412  -0.513125  13.26549  77.049061  -5.081162  -9.147093  12.379452  -7.27365  15.262127  46.622906  13.397771  31.126843  -1.325516  -31.594097  -104.459109  61.845059  12.275595  0.035672  14.61245  -1.160439  0.64662  10.960203  -0.855445  0.513055  
0.0  101.685394  0.0  -0.405943  3.423572  -101.323689  5.487329  -20.775753  3.015738  -0.029024  13.521409  28.417188  5.416488  4.748412  4.80456  -11.80498  12.617551  0.364107  0.89789  3.815944  19.644645  -1.236528  1.489476  -1.030788  -3.759957  0.87342  2.684116  -10.171492  2.793891  7.184629  -10.171492  2.793891  7.184629  -17.36573  27.213735  8.448275  157.774549  65.525866  173.161017  -2.98754  -1.384221  13.886441  76.92795  -5.185699  -8.788886  12.201833  -7.30325  15.000162  46.45899  13.672985  31.160622  -1.753134  -30.310361  -103.83037  62.514371  11.468709  -0.068537  14.458254  -1.157144  0.513046  10.8443  -0.856286  0.412432  
0.0  101.685394  0.0  -0.308419  3.622228  -101.23319  5.346495  -20.656756  2.863723  -0.147083  13.616744  28.472696  5.48657  4.754332  4.815615  -12.173955  12.735735  0.317334  0.916445  3.916091  19.631043  -1.111053  1.447847  -1.063235  -3.749249  0.885746  2.683932  -10.141018  2.826279  7.182809  -10.141017  2.826279  7.182808  -17.22799  27.053829  8.335714  157.426805  65.446705  173.014535  -3.074289  -2.10545  14.357076  76.781986  -5.341736  -8.315232  12.197614  -7.340389  14.792732  46.226442  14.001651  31.15341  -2.350174  -28.803225  -103.088067  63.319723  10.769427  -0.384481  14.338439  -1.152723  0.388647  10.754204  -0.855981  0.31874  
0.0  101.685394  0.0  -0.228507  4.037028  -101.086353  5.257839  -20.58441  2.740278  -0.434037  13.738578  28.43687  5.452719  4.739149  4.760688  -12.611631  12.856902  0.244906  0.883113  4.010732  19.632156  -1.095703  1.385478  -1.101814  -3.774926  0.890459  2.674499  -10.211126  2.840408  7.155171  -10.211126  2.840408  7.155171  -16.626809  27.098757  8.275242  158.090116  65.198219  173.598595  -2.509691  -3.336981  15.386382  76.663306  -5.489543  -7.703331  11.987063  -7.376648  14.493487  46.199402  14.351095  31.248396  -3.016439  -27.043232  -102.229238  64.251731  10.083719  -0.922032  14.229558  -1.163781  0.282896  10.672342  -0.866805  0.239427  
0.0  101.685394  0.0  -0.148473  4.345718  -101.068329  4.995496  -20.425586  2.559166  -0.495531  13.76627  28.613291  5.429759  4.756192  4.754321  -13.014848  12.982136  0.261467  0.865363  4.118995  19.627914  -0.979553  1.329341  -1.123734  -3.7643  0.901017  2.690298  -10.180298  2.870432  7.197208  -10.180299  2.870432  7.197208  -16.426411  26.956218  8.123724  157.856014  65.169492  173.661351  -2.515529  -4.282598  16.040239  76.573866  -5.602017  -6.967203  11.913931  -7.423635  14.266083  46.040375  14.794177  31.212754  -3.780541  -25.132627  -101.286821  65.441243  9.418035  -1.639459  14.055585  -1.163147  0.143427  10.541601  -0.869606  0.134413  
0.0  101.685394  0.0  -0.118654  4.651301  -101.105044  4.915176  -20.420663  2.53004  -0.465582  13.812886  28.844977  5.219478  4.728985  4.647496  -13.38839  13.070752  0.350441  1.038935  4.168359  19.670624  -0.970905  1.285633  -1.172772  -3.738991  0.898618  2.719506  -10.110025  2.865615  7.278438  -10.110025  2.865616  7.278439  -15.859392  27.007494  7.997455  158.567829  64.93217  174.411436  -1.877853  -5.773617  17.252315  76.508406  -5.701006  -6.175894  11.493215  -7.463909  13.906886  46.120551  15.275974  31.280573  -4.489787  -22.992237  -100.269635  66.874831  8.725909  -2.52396  13.873538  -1.17509  0.005577  10.404799  -0.88173  0.030887  
